<!DOCTYPE svg PUBLIC "-//W3C//DTD SVG 1.1//EN" "http://www.w3.org/Graphics/SVG/1.1/DTD/svg11.dtd">
<!-- Uploaded to: SVG Repo, www.svgrepo.com, Transformed by: SVG Repo Mixer Tools -->
<svg version="1.1" id="Layer_1" xmlns="http://www.w3.org/2000/svg" xmlns:xlink="http://www.w3.org/1999/xlink" viewBox="0 0 511.999 511.999" xml:space="preserve" width="800px" height="800px" fill="#000000">
<g id="SVGRepo_bgCarrier" stroke-width="0"/>
<g id="SVGRepo_tracerCarrier" stroke-linecap="round" stroke-linejoin="round"/>
<g id="SVGRepo_iconCarrier"> <path style="fill:#1D71B8;" d="M256,142.752c37.107,0,72.189,3.114,103.363,7.551h2.333V97.454H150.303v52.849h2.333 C183.811,145.867,218.893,142.752,256,142.752z"/> <path style="fill:#F9B233;" d="M490.042,180.502c0,0-104.784,37.749-234.042,37.749S21.958,180.502,21.958,180.502 s104.784-37.75,234.042-37.75S490.042,180.502,490.042,180.502z"/> <polygon style="fill:#1D71B8;" points="414.545,490.042 97.456,490.042 210.701,240.9 301.299,240.9 "/> <polygon style="fill:#77AAD4;" points="316.398,490.042 97.456,490.042 210.701,240.9 271.099,240.9 "/> <path style="fill:#FAC15C;" d="M331.498,97.454c0-41.695-33.802-75.497-75.497-75.497s-75.497,33.802-75.497,75.497H331.498z"/> <g> <circle style="fill:#FFFFFF;" cx="293.746" cy="180.498" r="15.099"/> <circle style="fill:#FFFFFF;" cx="218.251" cy="180.498" r="15.099"/> </g> <g> <rect x="172.954" y="112.662" style="fill:#1D1D1B;" width="15.099" height="14.884"/> <rect x="203.152" y="112.662" style="fill:#1D1D1B;" width="15.099" height="14.884"/> <rect x="233.35" y="112.662" style="fill:#1D1D1B;" width="15.099" height="14.884"/> <rect x="263.548" y="112.662" style="fill:#1D1D1B;" width="15.099" height="14.884"/> <rect x="293.746" y="112.662" style="fill:#1D1D1B;" width="15.099" height="14.884"/> <rect x="323.944" y="112.662" style="fill:#1D1D1B;" width="15.099" height="14.884"/> <path style="fill:#1D1D1B;" d="M492.565,173.5c-0.724-0.262-50.677-18.002-123.426-29.207v-16.746h7.657v-14.885h-7.657v-22.65 h-30.55c-3.778-42.257-39.366-75.498-82.589-75.498s-78.81,33.241-82.589,75.498h-30.55v22.651h-7.657v14.884h7.657v16.746 C70.113,155.498,20.16,173.238,19.435,173.5L0,180.501l19.435,7.001c1.061,0.382,107.5,38.191,236.564,38.191 s235.505-37.808,236.564-38.191l19.435-7.001L492.565,173.5z M256,29.399c35.01,0,63.919,26.577,67.64,60.613H188.36 C192.08,55.975,220.991,29.399,256,29.399z M157.746,104.897h196.508v37.244c-29.997-4.053-63.291-6.83-98.254-6.83 s-68.257,2.776-98.254,6.83V104.897z M256,210.809c-91.822,0-171.905-19.505-209.22-30.311 c37.29-10.805,117.313-30.302,209.22-30.302c91.822,0,171.905,19.504,209.22,30.31C427.929,191.312,347.907,210.809,256,210.809z"/> </g> <rect x="210.707" y="67.365" style="fill:#FFFFFF;" width="90.594" height="14.885"/> <g> <path style="fill:#1D1D1B;" d="M218.251,203.043c-12.429,0-22.542-10.113-22.542-22.542s10.113-22.541,22.542-22.541 c12.43,0,22.542,10.113,22.542,22.541C240.793,192.931,230.681,203.043,218.251,203.043z M218.251,172.845 c-4.222,0-7.657,3.435-7.657,7.656c0,4.222,3.435,7.657,7.657,7.657c4.223,0,7.658-3.435,7.658-7.657 C225.909,176.279,222.473,172.845,218.251,172.845z"/> <path style="fill:#1D1D1B;" d="M293.749,203.043c-12.43,0-22.542-10.113-22.542-22.542s10.113-22.541,22.542-22.541 c12.429,0,22.542,10.113,22.542,22.541C316.291,192.931,306.178,203.043,293.749,203.043z M293.749,172.845 c-4.223,0-7.658,3.435-7.658,7.656c0,4.222,3.436,7.657,7.658,7.657c4.223,0,7.657-3.435,7.657-7.657 C301.406,176.279,297.972,172.845,293.749,172.845z"/> <rect x="215.621" y="323.707" transform="matrix(-0.9839 -0.1789 0.1789 -0.9839 381.8744 712.5499)" style="fill:#1D1D1B;" width="14.885" height="30.701"/> <rect x="270.842" y="316.518" transform="matrix(-0.1789 -0.9839 0.9839 -0.1789 18.6538 663.4886)" style="fill:#1D1D1B;" width="30.696" height="14.885"/> <path style="fill:#1D1D1B;" d="M426.103,497.485L312.856,248.342h18.641v-14.885H180.502v14.885h18.641L85.898,497.485H426.103z M264.889,248.342l7.125,39.187l14.644-2.663l-6.64-36.524h16.49l106.481,234.257H204.52l17.622-96.922l-14.644-2.662 l-18.106,99.584h-80.378l106.481-234.257L264.889,248.342L264.889,248.342z"/> </g> </g>
</svg>